<svg xmlns="http://www.w3.org/2000/svg" viewBox="0 0 152 152"><defs><style>.cls-1{fill:#fff;stroke:#fff;stroke-miterlimit:10;stroke-width:2px;opacity:0.4;}</style></defs><title>Asset 8</title><g id="Layer_2" data-name="Layer 2"><g id="Layer_1-2" data-name="Layer 1"><path class="cls-1" d="M1,1V151H151V1ZM69.08,18.65a11.08,11.08,0,0,1,8.64,4.11,11.16,11.16,0,0,1,19.81,7C97.53,44,79,50.74,78.23,51a1.52,1.52,0,0,1-.51.09,1.43,1.43,0,0,1-.5-.09c-.79-.28-19.3-7.07-19.3-21.21A11.18,11.18,0,0,1,69.08,18.65Zm70.62,89.52-15.91,8.32a9.31,9.31,0,1,1-16.5,8.62l-15.92,8.32a6.14,6.14,0,0,1-9-4.8c-.88-8.26-2.84-20.83-7.1-32.09a146.22,146.22,0,0,0-5.13,26.37,6.15,6.15,0,0,1-8.95,4.81l-15.93-8.31a9.3,9.3,0,1,1-16.5-8.6l-15.93-8.3A6.15,6.15,0,0,1,11.7,92.42c7.75-6.73,19.94-18.55,26.6-31.32,10.27-19.69,30.46-6.78,30.46-6.78a29.86,29.86,0,0,1,10.69,8.12A29.17,29.17,0,0,1,83.79,60S104,47.11,114.25,66.79c6.67,12.76,18.88,24.58,26.63,31.3A6.13,6.13,0,0,1,139.7,108.17Z"/></g></g></svg>