<svg xmlns="http://www.w3.org/2000/svg" viewBox="0 0 336.63 26.06"><defs><style>.cls-1{fill:#fff;}</style></defs><title>Asset 1</title><g id="Layer_2" data-name="Layer 2"><g id="Layer_1-2" data-name="Layer 1"><path class="cls-1" d="M8.24,26a10.12,10.12,0,0,1-4.95-1.11A11.74,11.74,0,0,1,0,22.21l3.49-3.89a10.05,10.05,0,0,0,2.18,1.86,4.62,4.62,0,0,0,2.43.66,3.17,3.17,0,0,0,2.48-1,4.65,4.65,0,0,0,.9-3.18V.43h5.69V16.92a11.25,11.25,0,0,1-.61,3.92,7.77,7.77,0,0,1-1.76,2.81A7.49,7.49,0,0,1,12,25.4,11.27,11.27,0,0,1,8.24,26Z"/><path class="cls-1" d="M42.26,26.06a13.8,13.8,0,0,1-5.36-1,13.55,13.55,0,0,1-4.23-2.77,12.47,12.47,0,0,1-2.77-4.11,12.93,12.93,0,0,1-1-5.06V13a12.63,12.63,0,0,1,1-5.06A12.86,12.86,0,0,1,37,1a13.81,13.81,0,0,1,5.39-1A13.62,13.62,0,0,1,47.7,1,13.21,13.21,0,0,1,51.93,3.8,12.33,12.33,0,0,1,54.7,7.9a12.93,12.93,0,0,1,1,5.06V13a12.6,12.6,0,0,1-1,5.06,12.92,12.92,0,0,1-7,7A14,14,0,0,1,42.26,26.06ZM42.34,21a7.57,7.57,0,0,0,3.06-.61,7.06,7.06,0,0,0,2.39-1.69,8,8,0,0,0,1.55-2.5,8.35,8.35,0,0,0,.56-3V13A8.44,8.44,0,0,0,49.34,10a7.59,7.59,0,0,0-4-4.23,7.35,7.35,0,0,0-3.06-.63,7.65,7.65,0,0,0-3.07.61,7,7,0,0,0-2.38,1.7,7.91,7.91,0,0,0-1.55,2.5,8.29,8.29,0,0,0-.56,3V13a8.44,8.44,0,0,0,.56,3.06,7.64,7.64,0,0,0,4,4.23A7.34,7.34,0,0,0,42.34,21Z"/><path class="cls-1" d="M67.82.43h19V5.36H73.3v5.12H85.18v4.93H73.3V20.7H87v4.93H67.82Z"/><path class="cls-1" d="M123.08,15.44h-6.51v-5h6.51V4h5.12v6.44h6.51v5H128.2v6.48h-5.12Z"/><path class="cls-1" d="M165.38.43h11.68c2.9,0,5.09.75,6.58,2.23A5.84,5.84,0,0,1,185.36,7V7a6.16,6.16,0,0,1-.27,1.91,5.54,5.54,0,0,1-.71,1.49,5.32,5.32,0,0,1-1,1.17,6.81,6.81,0,0,1-1.27.87,8.39,8.39,0,0,1,3.44,2.25,5.72,5.72,0,0,1,1.26,3.94v.07a6.43,6.43,0,0,1-.67,3,5.8,5.8,0,0,1-1.9,2.16,8.88,8.88,0,0,1-3,1.3,16,16,0,0,1-3.86.43h-12ZM175.9,10.62a5.76,5.76,0,0,0,2.91-.63,2.18,2.18,0,0,0,1.08-2V7.88A2.21,2.21,0,0,0,179,6a4.62,4.62,0,0,0-2.71-.67h-5.47v5.33Zm1.47,10.15a5.39,5.39,0,0,0,2.88-.66,2.28,2.28,0,0,0,1-2.07V18a2.35,2.35,0,0,0-1-2,5.17,5.17,0,0,0-3.13-.74h-6.41v5.54Z"/><path class="cls-1" d="M207.21.25h5.12l10.8,25.38h-5.8L215,20H204.37l-2.3,5.65h-5.66Zm5.84,14.83L209.7,6.91l-3.35,8.17Z"/><path class="cls-1" d="M234.47.43H240v25.2h-5.54Z"/><path class="cls-1" d="M253.51.43h5.54v20.2h12.57v5H253.51Z"/><path class="cls-1" d="M283,.43h19V5.36h-13.5v5.12h11.88v4.93H288.47V20.7h13.68v4.93H283Z"/><path class="cls-1" d="M321.41,15.7,311.72.43h6.48l6,10.12L330.33.43h6.3L327,15.59v10h-5.54Z"/></g></g></svg>