<svg xmlns="http://www.w3.org/2000/svg" viewBox="0 0 323 323"><defs><style>.cls-1{fill:none;stroke:#fff;stroke-miterlimit:10;stroke-width:2px;}.cls-2{fill:#fff;}</style></defs><title>Asset 22</title><g id="Layer_2" data-name="Layer 2"><g id="Layer_1-2" data-name="Layer 1"><circle class="cls-1" cx="161.5" cy="161.5" r="160.5"/><path class="cls-2" d="M42.21,194.8a6.86,6.86,0,0,1,.23,3.43,8,8,0,0,1-1.09,2.65l-3.2-1.51a6.4,6.4,0,0,0,.78-1.77,3.11,3.11,0,0,0,0-1.71,2.2,2.2,0,0,0-1.13-1.42,3.1,3.1,0,0,0-2.23,0L25,197.65,23.91,194l10.69-3.19a7.74,7.74,0,0,1,2.66-.36,5,5,0,0,1,3.84,2.09A7.8,7.8,0,0,1,42.21,194.8Z"/><path class="cls-2" d="M37.32,169.75a9.31,9.31,0,0,1-.36,3.68,9,9,0,0,1-1.61,3,8.35,8.35,0,0,1-2.59,2.12,8.58,8.58,0,0,1-3.35,1h0a8.54,8.54,0,0,1-3.47-.37,8.65,8.65,0,0,1-5.12-4.31,9.82,9.82,0,0,1-.67-7.24,9,9,0,0,1,1.61-3,8.35,8.35,0,0,1,2.59-2.12,8.75,8.75,0,0,1,3.35-1h0a8.54,8.54,0,0,1,3.47.37,8.65,8.65,0,0,1,5.12,4.31A9.39,9.39,0,0,1,37.32,169.75Zm-3.45.27a5.17,5.17,0,0,0-.6-2A4.86,4.86,0,0,0,32,166.49a5.41,5.41,0,0,0-1.78-.89,5.8,5.8,0,0,0-2.09-.19h-.05a5.72,5.72,0,0,0-2,.56,5,5,0,0,0-1.6,1.23,5.09,5.09,0,0,0-1.24,3.84,5,5,0,0,0,.61,2,4.74,4.74,0,0,0,1.28,1.49,5.41,5.41,0,0,0,1.78.89,5.6,5.6,0,0,0,2.09.19H29a5.52,5.52,0,0,0,2-.56,5,5,0,0,0,1.6-1.23A5.05,5.05,0,0,0,33.87,170Z"/><path class="cls-2" d="M37.59,143.89a11.52,11.52,0,0,1-1.1,3.73,10.14,10.14,0,0,1-2.44,3.15l-2.38-2.5a10.92,10.92,0,0,0,1.77-2.22,6.3,6.3,0,0,0,.86-2.61,3.3,3.3,0,0,0-.21-1.85,1.32,1.32,0,0,0-1.1-.77h-.05a1.44,1.44,0,0,0-.66.06,1.41,1.41,0,0,0-.57.45,5.08,5.08,0,0,0-.61,1c-.21.43-.45,1-.71,1.68a20.92,20.92,0,0,1-1,2.24,6.67,6.67,0,0,1-1.16,1.66,3.81,3.81,0,0,1-1.55,1,4.91,4.91,0,0,1-2.15.16h-.05a5,5,0,0,1-2-.67,4.68,4.68,0,0,1-1.47-1.4,5.5,5.5,0,0,1-.83-2,7.55,7.55,0,0,1-.09-2.44,10.42,10.42,0,0,1,.95-3.36A10.16,10.16,0,0,1,23,136.48l2.58,2.26a12.45,12.45,0,0,0-1.47,2.08,5.57,5.57,0,0,0-.7,2.13,2.67,2.67,0,0,0,.23,1.68,1.32,1.32,0,0,0,1,.67h0a1.56,1.56,0,0,0,.73-.07,1.43,1.43,0,0,0,.62-.51,5.78,5.78,0,0,0,.58-1.08c.2-.46.44-1,.72-1.75a16.83,16.83,0,0,1,1-2.2,6.05,6.05,0,0,1,1.21-1.58,3.88,3.88,0,0,1,1.51-.89,4.9,4.9,0,0,1,1.95-.13h0a5.15,5.15,0,0,1,2.18.71,4.65,4.65,0,0,1,1.5,1.46,5.92,5.92,0,0,1,.8,2.07A9,9,0,0,1,37.59,143.89Z"/><path class="cls-2" d="M24.09,122,28,109.71l3.18,1-2.74,8.71,3.3,1,2.41-7.66,3.18,1-2.41,7.67,3.41,1.07,2.78-8.83,3.19,1-3.89,12.36Z"/><path class="cls-2" d="M33.59,96.58l3.32-6.12a8.06,8.06,0,0,1,1.69-2.2,5.74,5.74,0,0,1,2-1.22,5.23,5.23,0,0,1,2.26-.25,6.18,6.18,0,0,1,2.32.75l0,0a6.14,6.14,0,0,1,2,1.72,5.33,5.33,0,0,1,.94,2.19,6.2,6.2,0,0,1,0,2.46,9.54,9.54,0,0,1-1,2.55L45.87,99l4.49,2.44-1.79,3.3Zm10.76-1.8a3.09,3.09,0,0,0,.4-2.28,2.41,2.41,0,0,0-1.25-1.56l0,0a2.33,2.33,0,0,0-2.08-.2,3.44,3.44,0,0,0-1.64,1.65L38.35,94.9l4.59,2.49Z"/><path class="cls-2" d="M47.73,73.42l2.41-2.88,5.18,4.33,4.43-5.31-5.18-4.33L57,62.35,70.06,73.28l-2.4,2.88L62.4,71.77,58,77.08l5.25,4.39-2.4,2.88Z"/><path class="cls-2" d="M91.24,49.64a3.56,3.56,0,0,1-1.34.52,3.61,3.61,0,0,1-1.39,0,3.41,3.41,0,0,1-1.27-.55,3.52,3.52,0,0,1-1-1l0,0a3.56,3.56,0,0,1-.52-1.34,3.61,3.61,0,0,1,0-1.39,3.77,3.77,0,0,1,.57-1.26,3.43,3.43,0,0,1,1-1A3.62,3.62,0,0,1,90.07,43a3.66,3.66,0,0,1,1.27.55,3.51,3.51,0,0,1,1,1l0,0A3.37,3.37,0,0,1,92.88,46a3.62,3.62,0,0,1-.59,2.64A3.59,3.59,0,0,1,91.24,49.64Z"/><path class="cls-2" d="M117.16,24,124.79,22a6,6,0,0,1,4.69.29,4,4,0,0,1,1.88,2.5v0a4.16,4.16,0,0,1,.16,1.3,3.9,3.9,0,0,1-.2,1.1,4,4,0,0,1-.47.95,4.65,4.65,0,0,1-.68.79,5.77,5.77,0,0,1,2.65.86,3.9,3.9,0,0,1,1.51,2.35v.05a4.29,4.29,0,0,1,.1,2.09,3.89,3.89,0,0,1-.86,1.75,6,6,0,0,1-1.72,1.37,11,11,0,0,1-2.45,1l-7.81,2.11Zm8.66,4.8a4,4,0,0,0,1.8-.93,1.47,1.47,0,0,0,.34-1.52v-.05a1.53,1.53,0,0,0-1-1.09,3.18,3.18,0,0,0-1.88,0l-3.58,1,.94,3.48Zm2.76,6.37a3.54,3.54,0,0,0,1.76-1,1.51,1.51,0,0,0,.32-1.53v0a1.59,1.59,0,0,0-1-1.13,3.49,3.49,0,0,0-2.18.07l-4.18,1.13,1,3.62Z"/><path class="cls-2" d="M150.93,17.55l3.46-.19,8.26,16.73-3.91.22L157,30.58l-7.2.41-1.34,3.91-3.82.21Zm4.51,9.8L152.87,22l-2,5.65Z"/><path class="cls-2" d="M175.33,18,183,19.14a6.7,6.7,0,0,1,4.65,2.46,5.27,5.27,0,0,1,.85,4.07v0A5.36,5.36,0,0,1,187,28.9a5.85,5.85,0,0,1-2.9,1.49L187.31,37,183,36.38l-2.78-6h0L177.28,30l-.82,5.4-3.71-.57Zm6.21,9.33a3.17,3.17,0,0,0,2.21-.32,2.28,2.28,0,0,0,1-1.62v-.05a2.18,2.18,0,0,0-.49-1.93,3.45,3.45,0,0,0-2-.93l-3.68-.56-.75,4.84Z"/><path class="cls-2" d="M203.26,23.78l7.41,2.75a6.08,6.08,0,0,1,3.64,3,3.93,3.93,0,0,1,.09,3.12l0,.05a4.23,4.23,0,0,1-.62,1.14,3.73,3.73,0,0,1-.81.78,3.49,3.49,0,0,1-.93.5,5,5,0,0,1-1,.25,5.59,5.59,0,0,1,1.65,2.24,3.84,3.84,0,0,1-.13,2.79l0,.05a4.32,4.32,0,0,1-1.13,1.76,4,4,0,0,1-1.72.92,6,6,0,0,1-2.19.12,10.54,10.54,0,0,1-2.56-.64l-7.59-2.82Zm2.81,15.73a3.65,3.65,0,0,0,2,.25,1.57,1.57,0,0,0,1.16-1.06v-.05a1.63,1.63,0,0,0-.14-1.5,3.59,3.59,0,0,0-1.82-1.2l-4.06-1.51L201.89,38Zm1.46-6.79a4,4,0,0,0,2,.29,1.47,1.47,0,0,0,1.16-1l0,0a1.54,1.54,0,0,0-.14-1.45A3.17,3.17,0,0,0,209,29.43l-3.47-1.29-1.25,3.38Z"/><path class="cls-2" d="M234.5,38.14,237.42,40l-3,18.42-3.31-2.1.72-4.06-6.09-3.85-3.36,2.39-3.23-2Zm-2,10.59,1-5.88-4.87,3.46Z"/><path class="cls-2" d="M254.13,52.64l5.59,5.43a6.7,6.7,0,0,1,2.36,4.7,5.26,5.26,0,0,1-1.67,3.81l0,0a5.32,5.32,0,0,1-3.08,1.71,5.74,5.74,0,0,1-3.22-.47l-1.26,7.27-3.14-3,1.18-6.46,0,0-2.08-2-3.8,3.92-2.69-2.62Zm-.35,11.2a3.11,3.11,0,0,0,2,1,2.25,2.25,0,0,0,1.76-.74l0,0a2.16,2.16,0,0,0,.72-1.85,3.5,3.5,0,0,0-1.13-1.95l-2.68-2.59-3.41,3.51Z"/><path class="cls-2" d="M276.94,78.42l1.92,2.88-10.2,15.62-2.18-3.26,2.31-3.42-4-6-4,.83-2.12-3.18Zm-6.14,8.86,3.33-5-5.85,1.19Z"/><path class="cls-2" d="M284.48,122.71a3.54,3.54,0,0,1-.12-1.44,3.78,3.78,0,0,1,.42-1.32,3.48,3.48,0,0,1,.88-1.07,3.62,3.62,0,0,1,1.28-.66H287a3.5,3.5,0,0,1,1.43-.12,3.6,3.6,0,0,1,1.32.43,3.75,3.75,0,0,1,1.05.9,3.41,3.41,0,0,1,.67,1.28,3.88,3.88,0,0,1,.12,1.43,3.71,3.71,0,0,1-.42,1.32,3.9,3.9,0,0,1-.89,1.06,3.45,3.45,0,0,1-1.27.67l-.05,0a3.55,3.55,0,0,1-1.44.11,3.87,3.87,0,0,1-1.32-.43,3.72,3.72,0,0,1-1.05-.89A3.62,3.62,0,0,1,284.48,122.71Z"/><path class="cls-2" d="M52.66,229.2a3.4,3.4,0,0,1,.54,1.33,3.56,3.56,0,0,1-.53,2.67,3.67,3.67,0,0,1-1,1l0,0a3.44,3.44,0,0,1-1.34.54,3.37,3.37,0,0,1-1.38,0,3.63,3.63,0,0,1-1.28-.55,3.55,3.55,0,0,1-1-1,3.74,3.74,0,0,1-.54-1.33,3.56,3.56,0,0,1,0-1.38,3.66,3.66,0,0,1,.53-1.28,3.54,3.54,0,0,1,1-1l0,0a3.28,3.28,0,0,1,1.34-.53,3.81,3.81,0,0,1,1.39,0,3.59,3.59,0,0,1,1.26.54A3.42,3.42,0,0,1,52.66,229.2Z"/><path class="cls-2" d="M136,176.85q2.94-3.18,6-6.72t6-7.07q2.85-3.54,5.24-7A39.13,39.13,0,0,0,157,149.5a2.66,2.66,0,0,1,2.7-1.74,2.79,2.79,0,0,1,2.18.91,2.92,2.92,0,0,1,.84,2,3,3,0,0,1-.24,1.19,49,49,0,0,1-5,8.58q-3.18,4.46-6.87,8.86T143,177.92q-3.85,4.17-7,7.75.09,6.36.2,12.48t.12,11.6q0,21.85-4.29,32.43t-12.8,10.57a11.55,11.55,0,0,1-5.4-1.27,12.13,12.13,0,0,1-4.22-3.65,18.58,18.58,0,0,1-2.74-5.89,29.18,29.18,0,0,1-1-7.94,49.62,49.62,0,0,1,1.31-10.77,66,66,0,0,1,4.21-12.36,93.83,93.83,0,0,1,7.51-13.48A119.28,119.28,0,0,1,130,183.28q0-6.83.08-13.63t.28-13q.19-6.24.56-11.69c.23-3.63.51-6.84.83-9.65a3,3,0,0,1,1-1.91,3,3,0,0,1,2-.72,2.81,2.81,0,0,1,2.07.88,2.92,2.92,0,0,1,.87,2.14c0,.32-.09,1.35-.28,3.1s-.38,4.32-.59,7.71-.41,7.59-.6,12.6S136,170,136,176.85Zm-5.64,32.43q0-4.07-.08-8.11c-.05-2.7-.11-5.65-.16-8.82a94,94,0,0,0-8.38,11.76A89.09,89.09,0,0,0,116,215.24a56.75,56.75,0,0,0-3.22,10.09,43,43,0,0,0-1,8.67,32.61,32.61,0,0,0,.32,4.49,15.12,15.12,0,0,0,1.15,4.13,8,8,0,0,0,2.27,3,5.62,5.62,0,0,0,3.65,1.15,6.81,6.81,0,0,0,2.07-.39,6.23,6.23,0,0,0,2.42-1.71,15.64,15.64,0,0,0,2.43-3.78,31.81,31.81,0,0,0,2.14-6.64A78.53,78.53,0,0,0,129.76,224Q130.32,217.86,130.32,209.28Z"/><path class="cls-2" d="M223.78,152.05c-.15.32-.5,1-1,1.94s-1.22,2.12-2.07,3.42a50.72,50.72,0,0,1-3,4.14,32.14,32.14,0,0,1-3.81,4,20.8,20.8,0,0,1-4.45,3,11,11,0,0,1-4.93,1.19,15.12,15.12,0,0,1-7-1.47,18.35,18.35,0,0,1-4.69-3.3,25.07,25.07,0,0,1-3.1,5.09,22.63,22.63,0,0,1-4.06,4,18.69,18.69,0,0,1-4.73,2.67,14.38,14.38,0,0,1-5.12.95,12.44,12.44,0,0,1-8.27-2.86,22,22,0,0,1-5.68-7.67c-1.51-3.21-2.69-4.93-3.54-9.17s-1.5-10.69-1.95-15.35-.73-9.38-.83-14.15-.16-9.3-.16-13.59q0-12.32.71-21.34A140,140,0,0,1,158,78.25,55.36,55.36,0,0,1,160.87,68a24,24,0,0,1,3.46-6.12,10.15,10.15,0,0,1,3.74-3,9.62,9.62,0,0,1,3.73-.79A8.27,8.27,0,0,1,177,59.85a13.58,13.58,0,0,1,3.81,4.88,28.4,28.4,0,0,1,2.35,7.59A55.83,55.83,0,0,1,184,82.1a89.42,89.42,0,0,1-1.82,17.57,167.76,167.76,0,0,1-4.73,18.08q-2.91,9-6.48,17.72T163.85,152a54.91,54.91,0,0,0,1.43,7.43,28.26,28.26,0,0,0,2.47,6.28,14,14,0,0,0,3.58,4.37,7.43,7.43,0,0,0,4.76,1.63,9.21,9.21,0,0,0,5.09-1.55,14.85,14.85,0,0,0,4.13-4,20.72,20.72,0,0,0,2.75-5.69,21.78,21.78,0,0,0,1-6.51,23.82,23.82,0,0,0-.44-4.5,15.07,15.07,0,0,0-1.35-4,9,9,0,0,0-2.26-2.9,5,5,0,0,0-3.26-1.11,3.7,3.7,0,0,0-2.23.59,4.14,4.14,0,0,0-1.67,2.82c-.05.48-.08.8-.08,1a5.55,5.55,0,0,0,.48,2.22,4.57,4.57,0,0,0,1.83,2,3,3,0,0,1,1.35,2.62,2.72,2.72,0,0,1-.91,2.15,3,3,0,0,1-2,.8,4.46,4.46,0,0,1-2.82-1,8.29,8.29,0,0,1-2.11-2.42A13.47,13.47,0,0,1,172.2,149a11.33,11.33,0,0,1-.48-3.1,11.09,11.09,0,0,1,.8-4.25,9.9,9.9,0,0,1,5.36-5.49,9.69,9.69,0,0,1,3.78-.75,10.8,10.8,0,0,1,5.92,1.59,13.41,13.41,0,0,1,4.17,4.21,19.16,19.16,0,0,1,2.47,6,29,29,0,0,1,.79,6.76,31.13,31.13,0,0,1-.24,3.89,14.64,14.64,0,0,0,1,1.67,9.51,9.51,0,0,0,1.9,2,12.68,12.68,0,0,0,2.87,1.67,9.93,9.93,0,0,0,3.89.71,6.73,6.73,0,0,0,3.93-1.47,22.47,22.47,0,0,0,3.9-3.66,41.15,41.15,0,0,0,3.46-4.69,44.22,44.22,0,0,0,2.62-4.65,3.07,3.07,0,0,1,1.11-1.23,3,3,0,0,1,1.59-.43,2.76,2.76,0,0,1,2.19.95,3.21,3.21,0,0,1,.83,2.15A3.53,3.53,0,0,1,223.78,152.05Zm-61.44-10.26q2.7-6.67,5.49-14t5-15a154.13,154.13,0,0,0,3.65-15.42A84.16,84.16,0,0,0,177.92,82q0-2.86-.28-6a32.25,32.25,0,0,0-1-5.76,13.91,13.91,0,0,0-2-4.37,3.69,3.69,0,0,0-3.14-1.75,2.93,2.93,0,0,0-1.63.83,10.13,10.13,0,0,0-2.1,2.94,33.54,33.54,0,0,0-2.23,5.85,74.41,74.41,0,0,0-2,9.49q-.92,5.77-1.51,13.87t-.6,19.08q0,3.66.08,7.43t.2,7.2c.08,2.27.17,4.37.28,6.27S162.24,140.58,162.34,141.79Z"/><circle class="cls-2" cx="135.37" cy="122.62" r="3.03"/><path class="cls-2" d="M58.88,253.12l-1.32-1.53,2.58-2.23,1.71,2,3.42-2.07-1.53-1.78,2.58-2.22,1.91,2.22,3.38-2,2.3,2.66-3.38,2,2.52,2.92,3.38-2,2.3,2.66-3.38,2,1.32,1.53-2.58,2.22-1.71-2L69,259.59l1.53,1.77-2.58,2.23L66,261.37l-3.48,2.08-2.3-2.66,3.48-2.08-2.52-2.93-3.48,2.09-2.29-2.67Zm7.79,3.8,3.42-2.06-2.53-2.93L64.14,254Z"/><path class="cls-2" d="M85.89,261.3l3.66,2.44-3.8,12.65,10.52-8.22,2.92,1.95L95.63,283l10.22-8.35,3.57,2.38L93.7,289.09l-3-2L94,274.63l-10.27,7.81-3-2Z"/><path class="cls-2" d="M119.17,280.72l13.3,4.49-1.17,3.46-9.46-3.2-1.21,3.59,8.33,2.81-1.17,3.45-8.32-2.81-1.26,3.71,9.59,3.24-1.16,3.46-13.43-4.53Z"/><path class="cls-2" d="M143.56,287.67l7.24.68a11.08,11.08,0,0,1,3.92,1.08,9.49,9.49,0,0,1,2.95,2.24,8.71,8.71,0,0,1,1.75,3.13,9.14,9.14,0,0,1,.37,3.71v.05a9.32,9.32,0,0,1-1.06,3.59,8.83,8.83,0,0,1-2.31,2.76,9.72,9.72,0,0,1-3.31,1.66,10.65,10.65,0,0,1-4.06.34l-7.24-.68Zm5.84,15.56a6.47,6.47,0,0,0,2.31-.19,5,5,0,0,0,1.88-1,5.52,5.52,0,0,0,1.3-1.64,5.79,5.79,0,0,0,.62-2.22v0a6,6,0,0,0-.2-2.29,5.3,5.3,0,0,0-1-1.89,5.06,5.06,0,0,0-1.66-1.32,6.13,6.13,0,0,0-2.24-.62l-3.15-.3-1.06,11.19Z"/><path class="cls-2" d="M171.79,288.88,179,287.8a11.26,11.26,0,0,1,4.07.11,9.57,9.57,0,0,1,3.4,1.47A8.85,8.85,0,0,1,188.9,292a9.25,9.25,0,0,1,1.25,3.52v.05a9.54,9.54,0,0,1-.17,3.74,8.63,8.63,0,0,1-1.58,3.23,9.74,9.74,0,0,1-2.82,2.41,10.81,10.81,0,0,1-3.86,1.3l-7.19,1.08Zm9.4,13.7a6.34,6.34,0,0,0,2.2-.73,4.85,4.85,0,0,0,1.58-1.39,5.38,5.38,0,0,0,.88-1.91,5.87,5.87,0,0,0,.07-2.3v-.05a5.94,5.94,0,0,0-.75-2.18,5.27,5.27,0,0,0-1.39-1.6,5.11,5.11,0,0,0-1.92-.88,6.24,6.24,0,0,0-2.33-.08l-3.14.47,1.66,11.12Z"/><path class="cls-2" d="M199.88,282.89l3.87-1.37L210,299.1l-3.87,1.36Z"/><path class="cls-2" d="M215.27,276.81l3.26-1.93,13.36,5.44-5.84-9.88,3.48-2.06,9.49,16-3,1.78-13.81-5.61,6,10.2-3.49,2.06Z"/><path class="cls-2" d="M258.7,268.3a10.69,10.69,0,0,1-3.34,2.28,9,9,0,0,1-7.17,0,10,10,0,0,1-3.2-2.23l0,0a9.61,9.61,0,0,1-2.8-6.8,9.51,9.51,0,0,1,.74-3.64,10,10,0,0,1,2.26-3.29,14.62,14.62,0,0,1,1.74-1.48,11.49,11.49,0,0,1,1.71-1,8.42,8.42,0,0,1,1.73-.59,13.44,13.44,0,0,1,1.83-.27l.35,4a12.39,12.39,0,0,0-1.32.18,7.93,7.93,0,0,0-1.2.36,7,7,0,0,0-1.14.6,7.26,7.26,0,0,0-1.14.94,4.69,4.69,0,0,0-1.16,1.8,5.49,5.49,0,0,0-.33,2.09,5.66,5.66,0,0,0,.47,2.11,6.15,6.15,0,0,0,1.29,1.9l0,0A6.55,6.55,0,0,0,250,266.7a5.7,5.7,0,0,0,2.15.52,5.48,5.48,0,0,0,2.15-.37,5.85,5.85,0,0,0,1.93-1.28,6.46,6.46,0,0,0,2-3.52l-1.88-1.91-2.94,2.9-2.49-2.52,5.77-5.69,5.68,5.77a13.45,13.45,0,0,1-1,3.89A11.28,11.28,0,0,1,258.7,268.3Z"/><path class="cls-2" d="M258.15,240.31l2.27-3.79,9.29-.14-4.24-8.26,2.28-3.79,16,9.61-2.09,3.47-10.43-6.27,4.12,8.6-.05.09-9.43.39,10.36,6.23-2.09,3.47Z"/><path class="cls-2" d="M272.4,213.29l4.22-13.39L280.1,201l-3,9.53,3.61,1.14,2.64-8.39,3.48,1.1-2.64,8.38,3.73,1.18,3-9.66,3.48,1.1-4.25,13.51Z"/><path class="cls-2" d="M278.73,188.63l.38-4.09L294,185.9l.84-9.25,3.69.33-1.22,13.34Z"/><path class="cls-2" d="M295.22,163.18,282.1,154.5l1.24,9.86-3.56.45-1.9-15.09,3.09-.39L294.09,158l-1.28-10.17,3.56-.45,1.94,15.4Z"/></g></g></svg>