<svg xmlns="http://www.w3.org/2000/svg" xmlns:xlink="http://www.w3.org/1999/xlink" viewBox="0 0 194.2 51.62"><defs><style>.cls-1{fill:#fff;}</style><symbol id="New_Symbol" data-name="New Symbol" viewBox="0 0 194.21 51.62"><path class="cls-1" d="M7,19.49a7.51,7.51,0,0,1-3.71-.83,8.94,8.94,0,0,1-2.46-2l2.61-2.92a7.46,7.46,0,0,0,1.63,1.39,3.39,3.39,0,0,0,1.82.5,2.37,2.37,0,0,0,1.86-.74,3.48,3.48,0,0,0,.68-2.39V.32h4.26V12.69a8.6,8.6,0,0,1-.46,2.94,5.91,5.91,0,0,1-1.32,2.11,5.59,5.59,0,0,1-2.12,1.31A8.17,8.17,0,0,1,7,19.49Z"/><path class="cls-1" d="M37.23,19.55a10.32,10.32,0,0,1-4-.77A10,10,0,0,1,30,16.7,9.19,9.19,0,0,1,28,13.62a9.59,9.59,0,0,1-.74-3.79V9.77a9.67,9.67,0,0,1,6-9,10.45,10.45,0,0,1,4-.77,10.32,10.32,0,0,1,4,.77,10,10,0,0,1,3.17,2.08,9.19,9.19,0,0,1,2.07,3.08,9.59,9.59,0,0,1,.74,3.79v0a9.67,9.67,0,0,1-6,9A10.45,10.45,0,0,1,37.23,19.55Zm.05-3.84a5.58,5.58,0,0,0,2.29-.46A5.23,5.23,0,0,0,41.37,14a6.12,6.12,0,0,0,1.16-1.88,6.36,6.36,0,0,0,.41-2.28V9.77a6.46,6.46,0,0,0-.41-2.29,5.78,5.78,0,0,0-1.19-1.89,5.6,5.6,0,0,0-1.82-1.28,5.43,5.43,0,0,0-2.29-.48,5.77,5.77,0,0,0-2.31.46,5.41,5.41,0,0,0-1.78,1.27A5.91,5.91,0,0,0,32,7.44a6.16,6.16,0,0,0-.42,2.28v0a6.3,6.3,0,0,0,.42,2.3A5.59,5.59,0,0,0,33.17,14,5.67,5.67,0,0,0,35,15.24,5.41,5.41,0,0,0,37.28,15.71Z"/><path class="cls-1" d="M67.37,19.49a12.42,12.42,0,0,1-4.24-.74,11,11,0,0,1-3.77-2.28l2.45-2.94a12.36,12.36,0,0,0,2.66,1.67,7,7,0,0,0,3,.62,3.69,3.69,0,0,0,2-.47A1.5,1.5,0,0,0,70.17,14v0a1.66,1.66,0,0,0-.15-.72,1.49,1.49,0,0,0-.57-.58,5.56,5.56,0,0,0-1.16-.54c-.49-.18-1.14-.37-1.93-.57a22.47,22.47,0,0,1-2.6-.78,7.23,7.23,0,0,1-2-1.07,4.33,4.33,0,0,1-1.26-1.58,5.58,5.58,0,0,1-.44-2.34V5.75a5.48,5.48,0,0,1,.48-2.33,5.21,5.21,0,0,1,1.35-1.8A6.19,6.19,0,0,1,64,.46,8.4,8.4,0,0,1,66.67.05a11.12,11.12,0,0,1,3.81.63,10.83,10.83,0,0,1,3.2,1.78L71.52,5.59A13.35,13.35,0,0,0,69,4.23a6.22,6.22,0,0,0-2.43-.5,2.91,2.91,0,0,0-1.82.47,1.44,1.44,0,0,0-.6,1.17v.06a1.64,1.64,0,0,0,.17.79,1.58,1.58,0,0,0,.64.61,5.71,5.71,0,0,0,1.25.51c.54.17,1.21.36,2,.57a20,20,0,0,1,2.55.85A6.93,6.93,0,0,1,72.71,9.9a4.19,4.19,0,0,1,1.17,1.55,5.26,5.26,0,0,1,.39,2.13v.06a5.83,5.83,0,0,1-.51,2.49A5.15,5.15,0,0,1,72.34,18a6.48,6.48,0,0,1-2.17,1.13A9.52,9.52,0,0,1,67.37,19.49Z"/><path class="cls-1" d="M88.21.32h14.2V4H92.3V7.86h8.9v3.7H92.3v4h10.25v3.7H88.21Z"/><path class="cls-1" d="M116.65.32h7.71a8.92,8.92,0,0,1,3,.48,6.41,6.41,0,0,1,2.26,1.33,5.87,5.87,0,0,1,1.43,2.07,6.74,6.74,0,0,1,.5,2.66v0A6.72,6.72,0,0,1,131,9.8a6,6,0,0,1-1.63,2.08,7,7,0,0,1-2.43,1.26,10.22,10.22,0,0,1-3,.41H120.8v5.67h-4.15Zm7.44,9.53A3.35,3.35,0,0,0,126.51,9a2.7,2.7,0,0,0,.87-2v0a2.54,2.54,0,0,0-.91-2.13A3.78,3.78,0,0,0,124,4.08H120.8V9.85Z"/><path class="cls-1" d="M147,.32h4.15V7.8h7.66V.32H163v18.9h-4.15V11.64h-7.66v7.58H147Z"/><path class="cls-1" d="M182.18,11.58H177.3V7.83h4.88V3H186V7.83h4.88v3.75H186v4.86h-3.83Z"/><path class="cls-1" d="M0,32.72H8.75a6.64,6.64,0,0,1,4.92,1.68A4.36,4.36,0,0,1,15,37.61v.06a4.8,4.8,0,0,1-.2,1.43,4.18,4.18,0,0,1-1.31,2,5,5,0,0,1-.95.65,6.37,6.37,0,0,1,2.57,1.69,4.31,4.31,0,0,1,.94,3v0a5,5,0,0,1-.49,2.27,4.44,4.44,0,0,1-1.43,1.62,6.75,6.75,0,0,1-2.24,1A11.79,11.79,0,0,1,9,51.62H0Zm7.87,7.65a4.28,4.28,0,0,0,2.19-.48,1.63,1.63,0,0,0,.8-1.52v-.06a1.65,1.65,0,0,0-.7-1.44,3.46,3.46,0,0,0-2-.5H4v4ZM9,48a4,4,0,0,0,2.15-.5,1.71,1.71,0,0,0,.79-1.55v-.06a1.8,1.8,0,0,0-.73-1.5,4,4,0,0,0-2.35-.55H4V48Z"/><path class="cls-1" d="M35.15,32.59H39l8.09,19H42.73L41,47.39H33L31.3,51.62H27.07Zm4.37,11.12L37,37.58l-2.5,6.13Z"/><path class="cls-1" d="M59.2,32.72h8.63a7.44,7.44,0,0,1,5.5,1.92A5.87,5.87,0,0,1,74.94,39V39a5.89,5.89,0,0,1-1.12,3.73,6.41,6.41,0,0,1-2.92,2.12l4.61,6.75H70.66l-4-6H63.35v6H59.2Zm8.36,9.18a3.44,3.44,0,0,0,2.36-.73,2.48,2.48,0,0,0,.82-1.94v0a2.44,2.44,0,0,0-.86-2,3.83,3.83,0,0,0-2.4-.67H63.35V41.9Z"/><path class="cls-1" d="M87.91,32.72h8.75a6.64,6.64,0,0,1,4.92,1.68,4.36,4.36,0,0,1,1.29,3.21v.06a4.8,4.8,0,0,1-.2,1.43,4.38,4.38,0,0,1-1.31,2,5,5,0,0,1-1,.65A6.37,6.37,0,0,1,103,43.43a4.31,4.31,0,0,1,.94,3v0a4.84,4.84,0,0,1-.5,2.27A4.33,4.33,0,0,1,102,50.33a6.84,6.84,0,0,1-2.24,1,11.79,11.79,0,0,1-2.89.32h-9Zm7.87,7.65A4.22,4.22,0,0,0,98,39.89a1.62,1.62,0,0,0,.81-1.52v-.06a1.65,1.65,0,0,0-.7-1.44,3.48,3.48,0,0,0-2-.5H92v4ZM96.89,48a4,4,0,0,0,2.15-.5,1.71,1.71,0,0,0,.79-1.55v-.06a1.8,1.8,0,0,0-.73-1.5,4,4,0,0,0-2.35-.55H92V48Z"/><path class="cls-1" d="M123.06,32.59h3.83l8.09,19h-4.34l-1.73-4.23h-8l-1.72,4.23H115Zm4.37,11.12-2.51-6.13-2.5,6.13Z"/><path class="cls-1" d="M147.11,32.72h8.63a7.44,7.44,0,0,1,5.5,1.92A5.87,5.87,0,0,1,162.85,39V39a5.89,5.89,0,0,1-1.12,3.73,6.41,6.41,0,0,1-2.92,2.12l4.61,6.75h-4.85l-4-6h-3.26v6h-4.15Zm8.36,9.18a3.44,3.44,0,0,0,2.36-.73,2.48,2.48,0,0,0,.82-1.94v0a2.41,2.41,0,0,0-.87-2,3.77,3.77,0,0,0-2.39-.67h-4.13V41.9Z"/><path class="cls-1" d="M182.29,32.59h3.83l8.08,19h-4.34l-1.72-4.23h-8l-1.73,4.23H174.2Zm4.37,11.12-2.51-6.13-2.51,6.13Z"/></symbol></defs><title>Asset 14</title><g id="Layer_2" data-name="Layer 2"><g id="Layer_1-2" data-name="Layer 1"><use id="New_Symbol-3" data-name="New Symbol" width="194.2" height="51.62" xlink:href="#New_Symbol"/></g></g></svg>